<?xml version="1.0" encoding="UTF-8" standalone="no"?>
<!-- Created with Inkscape (http://www.inkscape.org/) -->

<svg
   width="210mm"
   height="297mm"
   viewBox="0 0 210 297"
   version="1.1"
   id="svg4023"
   inkscape:version="1.2.1 (9c6d41e410, 2022-07-14)"
   sodipodi:docname="favicon_master.svg"
   xmlns:inkscape="http://www.inkscape.org/namespaces/inkscape"
   xmlns:sodipodi="http://sodipodi.sourceforge.net/DTD/sodipodi-0.dtd"
   xmlns="http://www.w3.org/2000/svg"
   xmlns:svg="http://www.w3.org/2000/svg">
  <sodipodi:namedview
     id="namedview4025"
     pagecolor="#ffffff"
     bordercolor="#000000"
     borderopacity="0.25"
     inkscape:showpageshadow="2"
     inkscape:pageopacity="0.0"
     inkscape:pagecheckerboard="0"
     inkscape:deskcolor="#d1d1d1"
     inkscape:document-units="mm"
     showgrid="false"
     inkscape:zoom="0.914906"
     inkscape:cx="244.28739"
     inkscape:cy="560.71334"
     inkscape:window-width="2560"
     inkscape:window-height="1369"
     inkscape:window-x="-8"
     inkscape:window-y="-8"
     inkscape:window-maximized="1"
     inkscape:current-layer="layer1" />
  <defs
     id="defs4020">
    <filter
       style="color-interpolation-filters:sRGB"
       inkscape:label="Drop Shadow"
       id="filter3630"
       x="-0.038306698"
       y="-0.033432157"
       width="1.1047423"
       height="1.0914128">
      <feFlood
         flood-opacity="0.498039"
         flood-color="rgb(0,0,0)"
         result="flood"
         id="feFlood3620" />
      <feComposite
         in="flood"
         in2="SourceGraphic"
         operator="in"
         result="composite1"
         id="feComposite3622" />
      <feGaussianBlur
         in="composite1"
         stdDeviation="1.6"
         result="blur"
         id="feGaussianBlur3624" />
      <feOffset
         dx="2.9"
         dy="2.9"
         result="offset"
         id="feOffset3626" />
      <feComposite
         in="SourceGraphic"
         in2="offset"
         operator="over"
         result="composite2"
         id="feComposite3628" />
    </filter>
  </defs>
  <g
     inkscape:label="Layer 1"
     inkscape:groupmode="layer"
     id="layer1">
    <rect
       style="fill:#3e5649;fill-opacity:1;stroke:#1a4e44;stroke-width:0.280109;stroke-linecap:round;stroke-linejoin:round;stroke-miterlimit:0"
       id="rect1793"
       width="158.6862"
       height="153.85536"
       x="16.379391"
       y="54.94379"
       ry="28.381672"
       inkscape:export-filename="equisecure.png"
       inkscape:export-xdpi="96"
       inkscape:export-ydpi="96" />
    <g
       id="g1791"
       transform="translate(-271.55112,-172.35832)"
       style="fill:#f2efde;fill-opacity:1;filter:url(#filter3630)">
      <path
         style="fill:#f2efde;fill-opacity:1;stroke:#1a4e44;stroke-width:0.218602;stroke-linecap:round;stroke-linejoin:round;stroke-miterlimit:0"
         d="m 364.3785,361.32812 c -3.98103,-2.64812 -8.96408,-6.37394 -12.72376,-9.51359 -5.31262,-4.43648 -16.26452,-15.94795 -16.26452,-17.09553 0,-0.20853 0.26027,-0.61469 0.57838,-0.90257 0.31811,-0.28789 0.57839,-0.65002 0.57839,-0.80473 0,-0.29898 -2.85813,-4.25613 -3.07407,-4.25613 -0.0701,0 -0.42982,0.19815 -0.79945,0.44035 -0.95228,0.62395 -1.45017,0.32239 -2.79652,-1.6938 l -1.18418,-1.77332 0.70474,-0.6062 0.70475,-0.6062 -1.89016,-3.1244 c -1.57412,-2.60201 -1.92648,-3.02621 -2.10741,-2.53708 -0.35345,0.95544 -0.7263,0.98122 -1.65426,0.11437 -0.81622,-0.76246 -0.85856,-0.90061 -0.61217,-1.99723 0.50034,-2.22686 3.19716,-10.90103 4.05597,-13.04581 0.4728,-1.18077 0.82307,-2.18342 0.77838,-2.22812 -0.15232,-0.15231 -3.20102,1.0168 -7.57498,2.90485 -2.40156,1.03665 -4.59282,1.88482 -4.86947,1.88482 -0.3087,0 -0.50299,-0.22144 -0.50299,-0.57329 0,-0.81328 4.31394,-8.10703 8.8118,-14.89847 3.92239,-5.92251 5.24259,-7.68798 8.48802,-11.35078 1.02176,-1.15315 1.7221,-2.09664 1.55632,-2.09664 -0.16578,0 -1.79592,0.70223 -3.62255,1.56051 -3.29845,1.54985 -3.95511,1.6384 -3.95511,0.53333 0,-0.60123 8.14831,-8.57851 11.57004,-11.3272 6.70555,-5.38659 13.27401,-9.01607 20.86218,-11.52766 5.57692,-1.84588 10.36818,-2.8575 10.36818,-2.18911 0,0.10187 -0.27155,0.72892 -0.60341,1.39344 l -0.60344,1.20822 -2.90502,0.65514 c -6.83723,1.54193 -13.98942,4.63349 -20.05465,8.66868 -3.57946,2.38143 -8.80135,6.52059 -8.80135,6.97646 0,0.14357 0.61814,0.0619 1.37365,-0.18144 0.75552,-0.24335 1.99181,-0.51396 2.74733,-0.60134 1.24068,-0.1435 1.37366,-0.10193 1.37366,0.42948 0,0.35523 -1.38998,2.05995 -3.50805,4.30237 -3.76732,3.9885 -7.43706,8.35177 -9.56916,11.3776 -2.81065,3.9888 -7.76857,11.99347 -7.4867,12.08743 0.16283,0.0543 1.83065,-0.47923 3.70627,-1.18556 1.87562,-0.70632 3.73556,-1.36353 4.1332,-1.46046 0.58722,-0.14314 1.14762,-1.01024 2.98446,-4.6178 4.07146,-7.99638 8.44075,-14.32987 13.70567,-19.86702 6.73803,-7.08644 13.8758,-11.85458 21.89048,-14.62315 l 3.11838,-1.07719 1.61499,-2.48572 c 3.61765,-5.56806 11.79528,-12.11381 12.5798,-10.06941 0.0779,0.203 0.0236,1.65304 -0.12065,3.22231 -0.14428,1.56928 -0.19608,2.91944 -0.11515,3.00036 0.0809,0.0809 0.76727,-0.43103 1.52525,-1.13768 1.72188,-1.6053 3.94075,-3.14054 4.53903,-3.14054 0.48752,0 0.52612,0.25477 0.46027,3.03651 -0.0593,2.50336 -0.51655,5.49268 -1.18187,7.72675 l -0.57891,1.94387 2.98667,2.97287 c 3.23483,3.21985 4.59322,5.19933 6.01843,8.77013 1.13662,2.84776 0.53411,2.00483 10.22255,14.30157 4.44878,5.64647 8.42115,10.85192 8.82747,11.56767 0.64231,1.13139 0.7388,1.64394 0.7388,3.92416 0,2.51132 -0.0532,2.73033 -1.25285,5.15292 -0.68909,1.39156 -1.79526,3.09324 -2.45814,3.78151 -1.31162,1.36183 -2.19869,1.70929 -5.72522,2.24255 -4.18576,0.63295 -6.31589,-0.35539 -8.99371,-4.1729 -1.08143,-1.54169 -1.56787,-1.91234 -5.11913,-3.90063 -2.15829,-1.20838 -5.01947,-2.85028 -6.35815,-3.64866 l -2.43398,-1.4516 -2.48227,0.34284 c -3.34344,0.46178 -6.72537,-0.12866 -9.91746,-1.73145 -1.53932,-0.77291 -1.8927,-0.68739 -2.25499,0.54573 -0.56647,1.92813 -0.67643,7.79418 -0.18833,10.04616 0.24096,1.1116 0.37952,2.07963 0.30798,2.15119 -0.0716,0.0716 -0.71634,-0.15472 -1.43286,-0.50283 -0.71651,-0.34811 -1.38247,-0.63293 -1.47989,-0.63293 -0.39396,0 0.20405,3.05238 0.66389,3.38876 0.70149,0.51313 8.41328,3.74808 14.38815,6.03556 l 5.17152,1.97991 -0.15507,6.37164 c -0.23741,9.75295 -1.24243,15.25789 -3.66538,20.07694 -2.51659,5.00519 -7.7007,10.14964 -14.28356,14.17421 -3.01419,1.84279 -3.01636,1.84258 -6.7741,-0.657 z m 7.28364,-3.08732 c 5.50568,-3.68158 9.50002,-7.9858 11.57149,-12.46925 1.92567,-4.16782 2.65542,-8.32659 2.94384,-16.77646 l 0.19076,-5.58957 -6.04086,-2.38911 c -3.32248,-1.31401 -7.44209,-3.02818 -9.15474,-3.80927 l -3.11388,-1.42017 -2.95915,1.39339 c -1.62754,0.76637 -5.65947,2.4622 -8.95988,3.76853 l -6.00072,2.37513 v 3.36646 c 0.003,15.24625 2.50256,21.85173 10.844,28.659 2.39807,1.95703 6.78944,4.928 7.28405,4.928 0.19172,0 1.71921,-0.91651 3.3944,-2.03668 z m 16.74711,-102.00008 c 0.68758,-2.99301 0.84289,-4.19437 0.52735,-4.07905 -0.37749,0.13796 -3.41464,3.5658 -3.80397,4.2933 -0.26527,0.49567 -0.17402,0.66064 0.63987,1.15687 1.72347,1.05078 2.12881,0.84 2.63675,-1.37112 z"
         id="path1704-8" />
      <path
         style="fill:#f2efde;fill-opacity:1;stroke:#1a4e44;stroke-width:0.218602;stroke-linecap:round;stroke-linejoin:round;stroke-miterlimit:0"
         d="m 361.3791,342.12612 c -1.88756,-1.87142 -3.43193,-3.53865 -3.43193,-3.70497 0,-0.49916 1.14337,-1.5684 1.67412,-1.56558 0.27215,10e-4 1.64005,1.05934 3.03977,2.35088 l 2.54498,2.34824 6.02699,-5.96577 c 3.31486,-3.28118 6.17723,-5.96578 6.36085,-5.96578 0.43342,0 1.7535,1.32047 1.7535,1.75404 0,0.46193 -13.701,14.15151 -14.16333,14.15151 -0.20516,0 -1.91741,-1.53116 -3.80495,-3.40257 z"
         id="path1706-9" />
    </g>
  </g>
</svg>
